<mxfile host="app.diagrams.net" modified="2023-10-17T15:27:27.626Z" agent="Mozilla/5.0 (Windows NT 10.0; Win64; x64) AppleWebKit/537.36 (KHTML, like Gecko) Chrome/117.0.0.0 Safari/537.36" etag="r5sFX3Kq4odiNVkB4eC6" version="22.0.4" type="device">
  <diagram name="Page-1" id="z9Zfxu89suXOrbXxsQ1B">
    <mxGraphModel dx="3501" dy="1414" grid="1" gridSize="10" guides="1" tooltips="1" connect="1" arrows="1" fold="1" page="1" pageScale="1" pageWidth="827" pageHeight="1169" math="0" shadow="0">
      <root>
        <mxCell id="0" />
        <mxCell id="1" parent="0" />
        <mxCell id="BOUWN-XstE5efqa54NFd-2" value="MANAGEMENT GROUP&lt;br&gt;INFRA_CORE" style="swimlane;whiteSpace=wrap;html=1;startSize=30;fillColor=#6a00ff;strokeColor=#3700CC;fontColor=#ffffff;" vertex="1" parent="1">
          <mxGeometry x="289.86" y="230" width="220" height="200" as="geometry" />
        </mxCell>
        <mxCell id="BOUWN-XstE5efqa54NFd-28" style="edgeStyle=orthogonalEdgeStyle;rounded=0;orthogonalLoop=1;jettySize=auto;html=1;curved=1;dashed=1;fillColor=#6a00ff;strokeColor=#3700CC;strokeWidth=3;endArrow=none;endFill=0;" edge="1" parent="1" source="BOUWN-XstE5efqa54NFd-6" target="BOUWN-XstE5efqa54NFd-20">
          <mxGeometry relative="1" as="geometry" />
        </mxCell>
        <mxCell id="BOUWN-XstE5efqa54NFd-6" value="MANAGEMENT GROUP&lt;br&gt;DEV_PROJECTS" style="swimlane;whiteSpace=wrap;html=1;startSize=30;fillColor=#6a00ff;strokeColor=#3700CC;fontColor=#ffffff;" vertex="1" parent="1">
          <mxGeometry x="959.86" y="220" width="200" height="200" as="geometry" />
        </mxCell>
        <mxCell id="BOUWN-XstE5efqa54NFd-8" value="&lt;font style=&quot;font-size: 16px;&quot;&gt;&lt;b&gt;&lt;font color=&quot;#00cccc&quot;&gt;INFRA_BACKBONE&lt;br&gt;AZURE AD&lt;br&gt;(TENANT)&lt;/font&gt;&lt;br&gt;&lt;/b&gt;&lt;/font&gt;" style="image;aspect=fixed;html=1;points=[];align=center;fontSize=12;image=img/lib/azure2/identity/Azure_Active_Directory.svg;" vertex="1" parent="1">
          <mxGeometry x="-80" y="40" width="70" height="64" as="geometry" />
        </mxCell>
        <mxCell id="BOUWN-XstE5efqa54NFd-11" value="SECURITY TEAM &#xa;SUBSCRIPTION" style="shape=image;verticalLabelPosition=bottom;labelBackgroundColor=default;verticalAlign=top;aspect=fixed;imageAspect=0;image=data:image/png,iVBORw0KGgoAAAANSUhEUgAAACkAAAA4CAYAAABg6tHIAAALRElEQVRoBb2ZaWxc1RmG+Udsx/s4KyQhiUNDUgJFIglKSTChqlpaNaICFUTFIlVFFUtCJGgp/VHKH6QQKKSoUqWWUBUJlN1OHCdexh6P7bE9Xsa7493xGtuzeMZ35t5zn+rcOzdOjO147JAfr+5sd+5z3vOdc77znbu8Xi9L1vgIvpFuQ97xkaX/3wymuxYFOD6Mb6Qd/4CbQG8Rgc5sJtu/YbL9WwJdF/D3OfANNuAd7eZ2QC8KUgIGOs8Rqv+IsPMVIkVPEyn8KZHCnxOxP4NS8QbB5n/h7y02QWc4E6sxsUGODeIbbiLQlc1U7V+JlPwaLXc7+tmVhsTZNYhz61HzdqGU/45g4+eGq0t1NCZICRhs/wrFfZhI8U/R8rYhzq9Dz15pSGSvQmSvRpzfiJb3MOHS5wg2SdClObowyKiDk12nUNyHUIv3Iy5lol9YYUjkrjXei7xMxIW16OdXoOesQLv8EErFqwSbP8ffX7LoGF0QpOHgleMoNQdRHVmI/ExE3lr0iysMyfdq6ZOojicRlzPRc1cYEhfXoeXvIFz2LMHmz/D32RcVo/NDjg/iG2lisvskSu1BA0QUbEa/lIF+OQNRsA7NvoNI+dMo9YcNydda0Q7E5XXoFzPQczPQCnYQrnyFYMtnpqPXYhv180JKwGDncZT6g6hlTyCKNqMXrkEvyEAvsCEcDxKueZlQ61ECfRcNhVo/Iex+BVH8oNEQs0H3GuDhimejoHa8EnSBo352SMvBnpMonoOoFVmI4s1QaIMiG9il0tHKf4TS+BbB7v/hG2nEP1xPsPPfhOtfQ5Q+BAU2yLddh5Wuh6tjd3RWyOsOGoD7EI5N6MWrodgGJemmHOmIim2EPS8Q6jiKf6icwIAdpfld1Kr9iNLNZmOKbOiFNvR86f69RniEXbE5ejPkjQ42HER1ZSFKN0HxNBil6eBMg7I0hGsjau0+lObfE+z+J6HOT4nUHUBUPIDuXGs2Rt4rnZegMkzyM9CKo462LixGb4I0HOw6jtLwFmrlPoRzE3rpKkywdChLh/I0qDClu1Yiqu5Dq3kY1fMUan0WomoresUa9LIMcKaDI9rAYhu6XbqagV50rxGzEemoATp/jJqQE6N4x/oI9F9CaTyMWpllAE7DpU3DudKgMvUm6VU29KrVply2640wGiRdl+4bsNF4lrGdbzNAjRhtPYZ/oBzv2FW8E9e+M6BMyLE+/IMVhDq+QHX/AlG2Cd25ynROuibBDLg0qEqF6pulV6ehV6ebqrIaEb1H3i/dl65K2JJp0OuOVr1AsOM4/qE6E3TGqDcgfaMtTPZ8g9L0NprrEfPPZNfKB1RaD00FVwpUJM+t8mSQKpNKAWcKlEblSAVH2qyOao5dTDX8hcmebHyjV2Z30j9UxVTbh0Rqf4lw3T/toASUzlVJOPmwJLAvh8KE2VWQAAXLTeUvh8uWEqFQ3ptigs5wVBRvJ1L1PKGWT/EP1c4BOehEaX4brXoPumvDtIMS0B2FdCZB0XLIi4cLcfPrfDzkRJUdD/J9bgLkJ4F01BpQckorkrGZiVr2FFMNf8Y/UDEH5JATpeVtNPce9MoNZhdbgDVykCRDcRQwexmcuRvOziH53ZllcHqGzsaZoCUp0zEqB5NdQm5ELduH4nkH/0DZHJDDFUy1v49a9xNE9abpwVGTArUpUJUM9gTIjTPhTt0Np+eQ/E7q5AxJ6Avx4JAxbc6z5kBKR5RuQa18mqnmD/APVs4BOVJLqOvvRJqeR9RsNUev7GYJWJcC1UlQnAAXl8G5OeBmQt8IK1+fXQZ5CeBMNnvKADWnJlH+MGHPH4w8Qc7VM9d0c3Rfa2Oy/yTKlT+ieR5Dr1mFXptuAtangFvGUgJcjoPzyyD77vklGyIlQ0J2/znpYpw5oOTol9OUKw29YhWifCNqzc8IXTlK4Kod3yyJhzlPjg/gH/UQ7P+KSMuziPr70etWgQT0JENtEpQngD3eBM2Trswj6bglGSJ5cZAfb8a1S0LKOE8zViu15gljPASu5pqAs+w2TciJMbzjQ/iHS5nq/huR1gOIxu3oDSvRG1OhPgmql0NFApTGQ0kMkmFSIu9bDuVJxnSmu1cg3Peh1u9FaX2TYM+X+EYbv9PNVrdHISfwTozhG+syQEN9x4i0HUA0bUFvWgGNSeBJgvpEqEuE2hhUkwg1SWbIuJPBnYKo3YDq2YfS9qYRZgbg+OAtIK1lyHJ0xMFUzwdErvwK0boNvXkFenMqNCfHpqZkkGpMNsJGr89A1G9AbXwcpf1Ngn3zO3izk9chb3B0xEHo6jEinRJ0iwG6VEjRsB61eS9KxxtMXj1hdvE8Ds4OeR02GqOjDqb6PzBB2xbvqN5kQzStR235MUrnGwT7v8R3be4YtOCsqxmTFpx1nYg6Ot6Ff3TpjoqWdahtj6N0vc7k4AkTcAEOzg95HXZpjurNNgzA9j0o3a8TvPqfmBxcIOTSHDUArzyO0vM6k0OxO7gwyBmOBkbsTPW+i9qRhWjdcMuRLlq3Eu56keDVf+C7Vj/nFGPBzHWdPSYtOOtqxei1BoKD/zWc0doevCWk1vYIU73vExg+j2/su8nsXFAzP18YZBTWN95FYCSfqb4P0VofNVciOVnLyb0haRo6Oj9qrTtQut8iOPA1/msevBMjeCfGY3Y0RsgeAqMlhPo+QmvaCa7l5noul0kJak320Qlcb7oHreVRwp2vMTmUg2+s2wS1emiB1xghewmMOgn1HkHz7ITSaPp2KQ6qE83VxVphGpLRGzKQE7hcYicHvsE31oF3Yvj7drKXwIiTUM8RtLqdZuJwQWZDcVCVaC5/Dckg5UlG96xCNDxAuP1FJgfP4R3vxSu3zwt00Ppd7E5KyO4jaLU7zWw9Z5mZsbsSwSNTuxQzxatLQXjWozbtRek8TGC40Mi0ZCJjPXyh18VBdh1Bc++EogSQex6Z0FbIDCmaycuMvlZCPkC47beEeo/hH60xMi2vnCm+VyfHegkMOwl1HkGr3glyCyuz7vNxUCZHeQrIjZuUOxVR9wMizc8R6j6Kf6QmZjirMbE5eSNk1S6Qe2u5d8mJA7nllfsiqWiFQ69ejXBvJdz8EoHBojsM2XEErXKXufk/EwfZceCQWbfco1tVjzR0lw3dtZqI5wCBgUt3EHLISejKETTXbriUCKfj4JzcTiRP14yi9R9ZXROVWwk3vnyHnbQgy3fDxUQ4Jffi8WCXdSBZnIqWCJ3p5k6wWm603jWKrFaMxXqNPSYHnYTaP0Yr2w25iXAyDk7HQ6EsUEUrZ9GapCj/IeH6l4xqnSxVxwpn/X5xkG0fo5XuhvOJcCIeTsk9eUq0smszy9ayfFK6jYj7N4TaPpm1EGVB3Oq6OMjWj9FKHoPsJPg2Hk4kQF6qWfSXBVKpAlnVvQfNvp2w+1UC/fY746SsBhvF1tZP0Yr3oJ9LQT+xHP1kInpumlm8lwX8y5bWIAoyCVe+QKCv4E5B9uMfchNq+wK1ZC96Thr6mRT0s6nouTbzECovA13qYoZxOqY69jNV9yf8V8vvEOT4EL6RFiY7viZS9gwibzMiZxV6tg39gjz9ih7XRc8a1eIs4yxSHprKo79bxd5c38cUk0ZyMD5EoM/OVO07qPYnEbmZ6Nnmgad18CkuZqLa96NUH2Ky85QJODZ3hWIuOOvz2CCjicH1I+XqQ6hFWYjcLYice0xd2IJamIVSdYhg21f4hhbv4JIgvdbRcscpA0Yt2I/IkaBbkK+VykNMdpwyAZfg4NIgLUeHmgi2fsVU9XuEHS8amqp6j2DL7XHwtkAajg414e+vINBTaEi+Nrr4Njh4eyBjTF6th8Z6/T/LBaab0dT6AQAAAABJRU5ErkJggg==;imageBackground=default;imageBorder=none;whiteSpace=wrap;align=center;fontSize=13;fontStyle=1;fontColor=#FF00FF;" vertex="1" parent="1">
          <mxGeometry x="359.86" y="556" width="41" height="56" as="geometry" />
        </mxCell>
        <mxCell id="BOUWN-XstE5efqa54NFd-14" value="NETWORKING TEAM &#xa;SUBSCRIPTION" style="shape=image;verticalLabelPosition=bottom;labelBackgroundColor=default;verticalAlign=top;aspect=fixed;imageAspect=0;image=data:image/png,iVBORw0KGgoAAAANSUhEUgAAACkAAAA4CAYAAABg6tHIAAALRElEQVRoBb2ZaWxc1RmG+Udsx/s4KyQhiUNDUgJFIglKSTChqlpaNaICFUTFIlVFFUtCJGgp/VHKH6QQKKSoUqWWUBUJlN1OHCdexh6P7bE9Xsa7493xGtuzeMZ35t5zn+rcOzdOjO147JAfr+5sd+5z3vOdc77znbu8Xi9L1vgIvpFuQ97xkaX/3wymuxYFOD6Mb6Qd/4CbQG8Rgc5sJtu/YbL9WwJdF/D3OfANNuAd7eZ2QC8KUgIGOs8Rqv+IsPMVIkVPEyn8KZHCnxOxP4NS8QbB5n/h7y02QWc4E6sxsUGODeIbbiLQlc1U7V+JlPwaLXc7+tmVhsTZNYhz61HzdqGU/45g4+eGq0t1NCZICRhs/wrFfZhI8U/R8rYhzq9Dz15pSGSvQmSvRpzfiJb3MOHS5wg2SdClObowyKiDk12nUNyHUIv3Iy5lol9YYUjkrjXei7xMxIW16OdXoOesQLv8EErFqwSbP8ffX7LoGF0QpOHgleMoNQdRHVmI/ExE3lr0iysMyfdq6ZOojicRlzPRc1cYEhfXoeXvIFz2LMHmz/D32RcVo/NDjg/iG2lisvskSu1BA0QUbEa/lIF+OQNRsA7NvoNI+dMo9YcNydda0Q7E5XXoFzPQczPQCnYQrnyFYMtnpqPXYhv180JKwGDncZT6g6hlTyCKNqMXrkEvyEAvsCEcDxKueZlQ61ECfRcNhVo/Iex+BVH8oNEQs0H3GuDhimejoHa8EnSBo352SMvBnpMonoOoFVmI4s1QaIMiG9il0tHKf4TS+BbB7v/hG2nEP1xPsPPfhOtfQ5Q+BAU2yLddh5Wuh6tjd3RWyOsOGoD7EI5N6MWrodgGJemmHOmIim2EPS8Q6jiKf6icwIAdpfld1Kr9iNLNZmOKbOiFNvR86f69RniEXbE5ejPkjQ42HER1ZSFKN0HxNBil6eBMg7I0hGsjau0+lObfE+z+J6HOT4nUHUBUPIDuXGs2Rt4rnZegMkzyM9CKo462LixGb4I0HOw6jtLwFmrlPoRzE3rpKkywdChLh/I0qDClu1Yiqu5Dq3kY1fMUan0WomoresUa9LIMcKaDI9rAYhu6XbqagV50rxGzEemoATp/jJqQE6N4x/oI9F9CaTyMWpllAE7DpU3DudKgMvUm6VU29KrVply2640wGiRdl+4bsNF4lrGdbzNAjRhtPYZ/oBzv2FW8E9e+M6BMyLE+/IMVhDq+QHX/AlG2Cd25ynROuibBDLg0qEqF6pulV6ehV6ebqrIaEb1H3i/dl65K2JJp0OuOVr1AsOM4/qE6E3TGqDcgfaMtTPZ8g9L0NprrEfPPZNfKB1RaD00FVwpUJM+t8mSQKpNKAWcKlEblSAVH2qyOao5dTDX8hcmebHyjV2Z30j9UxVTbh0Rqf4lw3T/toASUzlVJOPmwJLAvh8KE2VWQAAXLTeUvh8uWEqFQ3ptigs5wVBRvJ1L1PKGWT/EP1c4BOehEaX4brXoPumvDtIMS0B2FdCZB0XLIi4cLcfPrfDzkRJUdD/J9bgLkJ4F01BpQckorkrGZiVr2FFMNf8Y/UDEH5JATpeVtNPce9MoNZhdbgDVykCRDcRQwexmcuRvOziH53ZllcHqGzsaZoCUp0zEqB5NdQm5ELduH4nkH/0DZHJDDFUy1v49a9xNE9abpwVGTArUpUJUM9gTIjTPhTt0Np+eQ/E7q5AxJ6Avx4JAxbc6z5kBKR5RuQa18mqnmD/APVs4BOVJLqOvvRJqeR9RsNUev7GYJWJcC1UlQnAAXl8G5OeBmQt8IK1+fXQZ5CeBMNnvKADWnJlH+MGHPH4w8Qc7VM9d0c3Rfa2Oy/yTKlT+ieR5Dr1mFXptuAtangFvGUgJcjoPzyyD77vklGyIlQ0J2/znpYpw5oOTol9OUKw29YhWifCNqzc8IXTlK4Kod3yyJhzlPjg/gH/UQ7P+KSMuziPr70etWgQT0JENtEpQngD3eBM2Trswj6bglGSJ5cZAfb8a1S0LKOE8zViu15gljPASu5pqAs+w2TciJMbzjQ/iHS5nq/huR1gOIxu3oDSvRG1OhPgmql0NFApTGQ0kMkmFSIu9bDuVJxnSmu1cg3Peh1u9FaX2TYM+X+EYbv9PNVrdHISfwTozhG+syQEN9x4i0HUA0bUFvWgGNSeBJgvpEqEuE2hhUkwg1SWbIuJPBnYKo3YDq2YfS9qYRZgbg+OAtIK1lyHJ0xMFUzwdErvwK0boNvXkFenMqNCfHpqZkkGpMNsJGr89A1G9AbXwcpf1Ngn3zO3izk9chb3B0xEHo6jEinRJ0iwG6VEjRsB61eS9KxxtMXj1hdvE8Ds4OeR02GqOjDqb6PzBB2xbvqN5kQzStR235MUrnGwT7v8R3be4YtOCsqxmTFpx1nYg6Ot6Ff3TpjoqWdahtj6N0vc7k4AkTcAEOzg95HXZpjurNNgzA9j0o3a8TvPqfmBxcIOTSHDUArzyO0vM6k0OxO7gwyBmOBkbsTPW+i9qRhWjdcMuRLlq3Eu56keDVf+C7Vj/nFGPBzHWdPSYtOOtqxei1BoKD/zWc0doevCWk1vYIU73vExg+j2/su8nsXFAzP18YZBTWN95FYCSfqb4P0VofNVciOVnLyb0haRo6Oj9qrTtQut8iOPA1/msevBMjeCfGY3Y0RsgeAqMlhPo+QmvaCa7l5noul0kJak320Qlcb7oHreVRwp2vMTmUg2+s2wS1emiB1xghewmMOgn1HkHz7ITSaPp2KQ6qE83VxVphGpLRGzKQE7hcYicHvsE31oF3Yvj7drKXwIiTUM8RtLqdZuJwQWZDcVCVaC5/Dckg5UlG96xCNDxAuP1FJgfP4R3vxSu3zwt00Ppd7E5KyO4jaLU7zWw9Z5mZsbsSwSNTuxQzxatLQXjWozbtRek8TGC40Mi0ZCJjPXyh18VBdh1Bc++EogSQex6Z0FbIDCmaycuMvlZCPkC47beEeo/hH60xMi2vnCm+VyfHegkMOwl1HkGr3glyCyuz7vNxUCZHeQrIjZuUOxVR9wMizc8R6j6Kf6QmZjirMbE5eSNk1S6Qe2u5d8mJA7nllfsiqWiFQ69ejXBvJdz8EoHBojsM2XEErXKXufk/EwfZceCQWbfco1tVjzR0lw3dtZqI5wCBgUt3EHLISejKETTXbriUCKfj4JzcTiRP14yi9R9ZXROVWwk3vnyHnbQgy3fDxUQ4Jffi8WCXdSBZnIqWCJ3p5k6wWm603jWKrFaMxXqNPSYHnYTaP0Yr2w25iXAyDk7HQ6EsUEUrZ9GapCj/IeH6l4xqnSxVxwpn/X5xkG0fo5XuhvOJcCIeTsk9eUq0smszy9ayfFK6jYj7N4TaPpm1EGVB3Oq6OMjWj9FKHoPsJPg2Hk4kQF6qWfSXBVKpAlnVvQfNvp2w+1UC/fY746SsBhvF1tZP0Yr3oJ9LQT+xHP1kInpumlm8lwX8y5bWIAoyCVe+QKCv4E5B9uMfchNq+wK1ZC96Thr6mRT0s6nouTbzECovA13qYoZxOqY69jNV9yf8V8vvEOT4EL6RFiY7viZS9gwibzMiZxV6tg39gjz9ih7XRc8a1eIs4yxSHprKo79bxd5c38cUk0ZyMD5EoM/OVO07qPYnEbmZ6Nnmgad18CkuZqLa96NUH2Ky85QJODZ3hWIuOOvz2CCjicH1I+XqQ6hFWYjcLYice0xd2IJamIVSdYhg21f4hhbv4JIgvdbRcscpA0Yt2I/IkaBbkK+VykNMdpwyAZfg4NIgLUeHmgi2fsVU9XuEHS8amqp6j2DL7XHwtkAajg414e+vINBTaEi+Nrr4Njh4eyBjTF6th8Z6/T/LBaab0dT6AQAAAABJRU5ErkJggg==;imageBackground=default;imageBorder=none;whiteSpace=wrap;align=center;fontSize=13;fontStyle=1;fontColor=#FF00FF;" vertex="1" parent="1">
          <mxGeometry x="279.86" y="500" width="41" height="56" as="geometry" />
        </mxCell>
        <mxCell id="BOUWN-XstE5efqa54NFd-15" value="DATA TEAM &#xa;SUBSCRIPTION" style="shape=image;verticalLabelPosition=bottom;labelBackgroundColor=default;verticalAlign=top;aspect=fixed;imageAspect=0;image=data:image/png,iVBORw0KGgoAAAANSUhEUgAAACkAAAA4CAYAAABg6tHIAAALRElEQVRoBb2ZaWxc1RmG+Udsx/s4KyQhiUNDUgJFIglKSTChqlpaNaICFUTFIlVFFUtCJGgp/VHKH6QQKKSoUqWWUBUJlN1OHCdexh6P7bE9Xsa7493xGtuzeMZ35t5zn+rcOzdOjO147JAfr+5sd+5z3vOdc77znbu8Xi9L1vgIvpFuQ97xkaX/3wymuxYFOD6Mb6Qd/4CbQG8Rgc5sJtu/YbL9WwJdF/D3OfANNuAd7eZ2QC8KUgIGOs8Rqv+IsPMVIkVPEyn8KZHCnxOxP4NS8QbB5n/h7y02QWc4E6sxsUGODeIbbiLQlc1U7V+JlPwaLXc7+tmVhsTZNYhz61HzdqGU/45g4+eGq0t1NCZICRhs/wrFfZhI8U/R8rYhzq9Dz15pSGSvQmSvRpzfiJb3MOHS5wg2SdClObowyKiDk12nUNyHUIv3Iy5lol9YYUjkrjXei7xMxIW16OdXoOesQLv8EErFqwSbP8ffX7LoGF0QpOHgleMoNQdRHVmI/ExE3lr0iysMyfdq6ZOojicRlzPRc1cYEhfXoeXvIFz2LMHmz/D32RcVo/NDjg/iG2lisvskSu1BA0QUbEa/lIF+OQNRsA7NvoNI+dMo9YcNydda0Q7E5XXoFzPQczPQCnYQrnyFYMtnpqPXYhv180JKwGDncZT6g6hlTyCKNqMXrkEvyEAvsCEcDxKueZlQ61ECfRcNhVo/Iex+BVH8oNEQs0H3GuDhimejoHa8EnSBo352SMvBnpMonoOoFVmI4s1QaIMiG9il0tHKf4TS+BbB7v/hG2nEP1xPsPPfhOtfQ5Q+BAU2yLddh5Wuh6tjd3RWyOsOGoD7EI5N6MWrodgGJemmHOmIim2EPS8Q6jiKf6icwIAdpfld1Kr9iNLNZmOKbOiFNvR86f69RniEXbE5ejPkjQ42HER1ZSFKN0HxNBil6eBMg7I0hGsjau0+lObfE+z+J6HOT4nUHUBUPIDuXGs2Rt4rnZegMkzyM9CKo462LixGb4I0HOw6jtLwFmrlPoRzE3rpKkywdChLh/I0qDClu1Yiqu5Dq3kY1fMUan0WomoresUa9LIMcKaDI9rAYhu6XbqagV50rxGzEemoATp/jJqQE6N4x/oI9F9CaTyMWpllAE7DpU3DudKgMvUm6VU29KrVply2640wGiRdl+4bsNF4lrGdbzNAjRhtPYZ/oBzv2FW8E9e+M6BMyLE+/IMVhDq+QHX/AlG2Cd25ynROuibBDLg0qEqF6pulV6ehV6ebqrIaEb1H3i/dl65K2JJp0OuOVr1AsOM4/qE6E3TGqDcgfaMtTPZ8g9L0NprrEfPPZNfKB1RaD00FVwpUJM+t8mSQKpNKAWcKlEblSAVH2qyOao5dTDX8hcmebHyjV2Z30j9UxVTbh0Rqf4lw3T/toASUzlVJOPmwJLAvh8KE2VWQAAXLTeUvh8uWEqFQ3ptigs5wVBRvJ1L1PKGWT/EP1c4BOehEaX4brXoPumvDtIMS0B2FdCZB0XLIi4cLcfPrfDzkRJUdD/J9bgLkJ4F01BpQckorkrGZiVr2FFMNf8Y/UDEH5JATpeVtNPce9MoNZhdbgDVykCRDcRQwexmcuRvOziH53ZllcHqGzsaZoCUp0zEqB5NdQm5ELduH4nkH/0DZHJDDFUy1v49a9xNE9abpwVGTArUpUJUM9gTIjTPhTt0Np+eQ/E7q5AxJ6Avx4JAxbc6z5kBKR5RuQa18mqnmD/APVs4BOVJLqOvvRJqeR9RsNUev7GYJWJcC1UlQnAAXl8G5OeBmQt8IK1+fXQZ5CeBMNnvKADWnJlH+MGHPH4w8Qc7VM9d0c3Rfa2Oy/yTKlT+ieR5Dr1mFXptuAtangFvGUgJcjoPzyyD77vklGyIlQ0J2/znpYpw5oOTol9OUKw29YhWifCNqzc8IXTlK4Kod3yyJhzlPjg/gH/UQ7P+KSMuziPr70etWgQT0JENtEpQngD3eBM2Trswj6bglGSJ5cZAfb8a1S0LKOE8zViu15gljPASu5pqAs+w2TciJMbzjQ/iHS5nq/huR1gOIxu3oDSvRG1OhPgmql0NFApTGQ0kMkmFSIu9bDuVJxnSmu1cg3Peh1u9FaX2TYM+X+EYbv9PNVrdHISfwTozhG+syQEN9x4i0HUA0bUFvWgGNSeBJgvpEqEuE2hhUkwg1SWbIuJPBnYKo3YDq2YfS9qYRZgbg+OAtIK1lyHJ0xMFUzwdErvwK0boNvXkFenMqNCfHpqZkkGpMNsJGr89A1G9AbXwcpf1Ngn3zO3izk9chb3B0xEHo6jEinRJ0iwG6VEjRsB61eS9KxxtMXj1hdvE8Ds4OeR02GqOjDqb6PzBB2xbvqN5kQzStR235MUrnGwT7v8R3be4YtOCsqxmTFpx1nYg6Ot6Ff3TpjoqWdahtj6N0vc7k4AkTcAEOzg95HXZpjurNNgzA9j0o3a8TvPqfmBxcIOTSHDUArzyO0vM6k0OxO7gwyBmOBkbsTPW+i9qRhWjdcMuRLlq3Eu56keDVf+C7Vj/nFGPBzHWdPSYtOOtqxei1BoKD/zWc0doevCWk1vYIU73vExg+j2/su8nsXFAzP18YZBTWN95FYCSfqb4P0VofNVciOVnLyb0haRo6Oj9qrTtQut8iOPA1/msevBMjeCfGY3Y0RsgeAqMlhPo+QmvaCa7l5noul0kJak320Qlcb7oHreVRwp2vMTmUg2+s2wS1emiB1xghewmMOgn1HkHz7ITSaPp2KQ6qE83VxVphGpLRGzKQE7hcYicHvsE31oF3Yvj7drKXwIiTUM8RtLqdZuJwQWZDcVCVaC5/Dckg5UlG96xCNDxAuP1FJgfP4R3vxSu3zwt00Ppd7E5KyO4jaLU7zWw9Z5mZsbsSwSNTuxQzxatLQXjWozbtRek8TGC40Mi0ZCJjPXyh18VBdh1Bc++EogSQex6Z0FbIDCmaycuMvlZCPkC47beEeo/hH60xMi2vnCm+VyfHegkMOwl1HkGr3glyCyuz7vNxUCZHeQrIjZuUOxVR9wMizc8R6j6Kf6QmZjirMbE5eSNk1S6Qe2u5d8mJA7nllfsiqWiFQ69ejXBvJdz8EoHBojsM2XEErXKXufk/EwfZceCQWbfco1tVjzR0lw3dtZqI5wCBgUt3EHLISejKETTXbriUCKfj4JzcTiRP14yi9R9ZXROVWwk3vnyHnbQgy3fDxUQ4Jffi8WCXdSBZnIqWCJ3p5k6wWm603jWKrFaMxXqNPSYHnYTaP0Yr2w25iXAyDk7HQ6EsUEUrZ9GapCj/IeH6l4xqnSxVxwpn/X5xkG0fo5XuhvOJcCIeTsk9eUq0smszy9ayfFK6jYj7N4TaPpm1EGVB3Oq6OMjWj9FKHoPsJPg2Hk4kQF6qWfSXBVKpAlnVvQfNvp2w+1UC/fY746SsBhvF1tZP0Yr3oJ9LQT+xHP1kInpumlm8lwX8y5bWIAoyCVe+QKCv4E5B9uMfchNq+wK1ZC96Thr6mRT0s6nouTbzECovA13qYoZxOqY69jNV9yf8V8vvEOT4EL6RFiY7viZS9gwibzMiZxV6tg39gjz9ih7XRc8a1eIs4yxSHprKo79bxd5c38cUk0ZyMD5EoM/OVO07qPYnEbmZ6Nnmgad18CkuZqLa96NUH2Ky85QJODZ3hWIuOOvz2CCjicH1I+XqQ6hFWYjcLYice0xd2IJamIVSdYhg21f4hhbv4JIgvdbRcscpA0Yt2I/IkaBbkK+VykNMdpwyAZfg4NIgLUeHmgi2fsVU9XuEHS8amqp6j2DL7XHwtkAajg414e+vINBTaEi+Nrr4Njh4eyBjTF6th8Z6/T/LBaab0dT6AQAAAABJRU5ErkJggg==;imageBackground=default;imageBorder=none;whiteSpace=wrap;align=center;fontSize=13;fontStyle=1;fontColor=#FF00FF;" vertex="1" parent="1">
          <mxGeometry x="439.86" y="500" width="41" height="56" as="geometry" />
        </mxCell>
        <mxCell id="BOUWN-XstE5efqa54NFd-16" value="RESILIENCE TEAM (SRE)&#xa;SUBSCRIPTION" style="shape=image;verticalLabelPosition=bottom;labelBackgroundColor=default;verticalAlign=top;aspect=fixed;imageAspect=0;image=data:image/png,iVBORw0KGgoAAAANSUhEUgAAACkAAAA4CAYAAABg6tHIAAALRElEQVRoBb2ZaWxc1RmG+Udsx/s4KyQhiUNDUgJFIglKSTChqlpaNaICFUTFIlVFFUtCJGgp/VHKH6QQKKSoUqWWUBUJlN1OHCdexh6P7bE9Xsa7493xGtuzeMZ35t5zn+rcOzdOjO147JAfr+5sd+5z3vOdc77znbu8Xi9L1vgIvpFuQ97xkaX/3wymuxYFOD6Mb6Qd/4CbQG8Rgc5sJtu/YbL9WwJdF/D3OfANNuAd7eZ2QC8KUgIGOs8Rqv+IsPMVIkVPEyn8KZHCnxOxP4NS8QbB5n/h7y02QWc4E6sxsUGODeIbbiLQlc1U7V+JlPwaLXc7+tmVhsTZNYhz61HzdqGU/45g4+eGq0t1NCZICRhs/wrFfZhI8U/R8rYhzq9Dz15pSGSvQmSvRpzfiJb3MOHS5wg2SdClObowyKiDk12nUNyHUIv3Iy5lol9YYUjkrjXei7xMxIW16OdXoOesQLv8EErFqwSbP8ffX7LoGF0QpOHgleMoNQdRHVmI/ExE3lr0iysMyfdq6ZOojicRlzPRc1cYEhfXoeXvIFz2LMHmz/D32RcVo/NDjg/iG2lisvskSu1BA0QUbEa/lIF+OQNRsA7NvoNI+dMo9YcNydda0Q7E5XXoFzPQczPQCnYQrnyFYMtnpqPXYhv180JKwGDncZT6g6hlTyCKNqMXrkEvyEAvsCEcDxKueZlQ61ECfRcNhVo/Iex+BVH8oNEQs0H3GuDhimejoHa8EnSBo352SMvBnpMonoOoFVmI4s1QaIMiG9il0tHKf4TS+BbB7v/hG2nEP1xPsPPfhOtfQ5Q+BAU2yLddh5Wuh6tjd3RWyOsOGoD7EI5N6MWrodgGJemmHOmIim2EPS8Q6jiKf6icwIAdpfld1Kr9iNLNZmOKbOiFNvR86f69RniEXbE5ejPkjQ42HER1ZSFKN0HxNBil6eBMg7I0hGsjau0+lObfE+z+J6HOT4nUHUBUPIDuXGs2Rt4rnZegMkzyM9CKo462LixGb4I0HOw6jtLwFmrlPoRzE3rpKkywdChLh/I0qDClu1Yiqu5Dq3kY1fMUan0WomoresUa9LIMcKaDI9rAYhu6XbqagV50rxGzEemoATp/jJqQE6N4x/oI9F9CaTyMWpllAE7DpU3DudKgMvUm6VU29KrVply2640wGiRdl+4bsNF4lrGdbzNAjRhtPYZ/oBzv2FW8E9e+M6BMyLE+/IMVhDq+QHX/AlG2Cd25ynROuibBDLg0qEqF6pulV6ehV6ebqrIaEb1H3i/dl65K2JJp0OuOVr1AsOM4/qE6E3TGqDcgfaMtTPZ8g9L0NprrEfPPZNfKB1RaD00FVwpUJM+t8mSQKpNKAWcKlEblSAVH2qyOao5dTDX8hcmebHyjV2Z30j9UxVTbh0Rqf4lw3T/toASUzlVJOPmwJLAvh8KE2VWQAAXLTeUvh8uWEqFQ3ptigs5wVBRvJ1L1PKGWT/EP1c4BOehEaX4brXoPumvDtIMS0B2FdCZB0XLIi4cLcfPrfDzkRJUdD/J9bgLkJ4F01BpQckorkrGZiVr2FFMNf8Y/UDEH5JATpeVtNPce9MoNZhdbgDVykCRDcRQwexmcuRvOziH53ZllcHqGzsaZoCUp0zEqB5NdQm5ELduH4nkH/0DZHJDDFUy1v49a9xNE9abpwVGTArUpUJUM9gTIjTPhTt0Np+eQ/E7q5AxJ6Avx4JAxbc6z5kBKR5RuQa18mqnmD/APVs4BOVJLqOvvRJqeR9RsNUev7GYJWJcC1UlQnAAXl8G5OeBmQt8IK1+fXQZ5CeBMNnvKADWnJlH+MGHPH4w8Qc7VM9d0c3Rfa2Oy/yTKlT+ieR5Dr1mFXptuAtangFvGUgJcjoPzyyD77vklGyIlQ0J2/znpYpw5oOTol9OUKw29YhWifCNqzc8IXTlK4Kod3yyJhzlPjg/gH/UQ7P+KSMuziPr70etWgQT0JENtEpQngD3eBM2Trswj6bglGSJ5cZAfb8a1S0LKOE8zViu15gljPASu5pqAs+w2TciJMbzjQ/iHS5nq/huR1gOIxu3oDSvRG1OhPgmql0NFApTGQ0kMkmFSIu9bDuVJxnSmu1cg3Peh1u9FaX2TYM+X+EYbv9PNVrdHISfwTozhG+syQEN9x4i0HUA0bUFvWgGNSeBJgvpEqEuE2hhUkwg1SWbIuJPBnYKo3YDq2YfS9qYRZgbg+OAtIK1lyHJ0xMFUzwdErvwK0boNvXkFenMqNCfHpqZkkGpMNsJGr89A1G9AbXwcpf1Ngn3zO3izk9chb3B0xEHo6jEinRJ0iwG6VEjRsB61eS9KxxtMXj1hdvE8Ds4OeR02GqOjDqb6PzBB2xbvqN5kQzStR235MUrnGwT7v8R3be4YtOCsqxmTFpx1nYg6Ot6Ff3TpjoqWdahtj6N0vc7k4AkTcAEOzg95HXZpjurNNgzA9j0o3a8TvPqfmBxcIOTSHDUArzyO0vM6k0OxO7gwyBmOBkbsTPW+i9qRhWjdcMuRLlq3Eu56keDVf+C7Vj/nFGPBzHWdPSYtOOtqxei1BoKD/zWc0doevCWk1vYIU73vExg+j2/su8nsXFAzP18YZBTWN95FYCSfqb4P0VofNVciOVnLyb0haRo6Oj9qrTtQut8iOPA1/msevBMjeCfGY3Y0RsgeAqMlhPo+QmvaCa7l5noul0kJak320Qlcb7oHreVRwp2vMTmUg2+s2wS1emiB1xghewmMOgn1HkHz7ITSaPp2KQ6qE83VxVphGpLRGzKQE7hcYicHvsE31oF3Yvj7drKXwIiTUM8RtLqdZuJwQWZDcVCVaC5/Dckg5UlG96xCNDxAuP1FJgfP4R3vxSu3zwt00Ppd7E5KyO4jaLU7zWw9Z5mZsbsSwSNTuxQzxatLQXjWozbtRek8TGC40Mi0ZCJjPXyh18VBdh1Bc++EogSQex6Z0FbIDCmaycuMvlZCPkC47beEeo/hH60xMi2vnCm+VyfHegkMOwl1HkGr3glyCyuz7vNxUCZHeQrIjZuUOxVR9wMizc8R6j6Kf6QmZjirMbE5eSNk1S6Qe2u5d8mJA7nllfsiqWiFQ69ejXBvJdz8EoHBojsM2XEErXKXufk/EwfZceCQWbfco1tVjzR0lw3dtZqI5wCBgUt3EHLISejKETTXbriUCKfj4JzcTiRP14yi9R9ZXROVWwk3vnyHnbQgy3fDxUQ4Jffi8WCXdSBZnIqWCJ3p5k6wWm603jWKrFaMxXqNPSYHnYTaP0Yr2w25iXAyDk7HQ6EsUEUrZ9GapCj/IeH6l4xqnSxVxwpn/X5xkG0fo5XuhvOJcCIeTsk9eUq0smszy9ayfFK6jYj7N4TaPpm1EGVB3Oq6OMjWj9FKHoPsJPg2Hk4kQF6qWfSXBVKpAlnVvQfNvp2w+1UC/fY746SsBhvF1tZP0Yr3oJ9LQT+xHP1kInpumlm8lwX8y5bWIAoyCVe+QKCv4E5B9uMfchNq+wK1ZC96Thr6mRT0s6nouTbzECovA13qYoZxOqY69jNV9yf8V8vvEOT4EL6RFiY7viZS9gwibzMiZxV6tg39gjz9ih7XRc8a1eIs4yxSHprKo79bxd5c38cUk0ZyMD5EoM/OVO07qPYnEbmZ6Nnmgad18CkuZqLa96NUH2Ky85QJODZ3hWIuOOvz2CCjicH1I+XqQ6hFWYjcLYice0xd2IJamIVSdYhg21f4hhbv4JIgvdbRcscpA0Yt2I/IkaBbkK+VykNMdpwyAZfg4NIgLUeHmgi2fsVU9XuEHS8amqp6j2DL7XHwtkAajg414e+vINBTaEi+Nrr4Njh4eyBjTF6th8Z6/T/LBaab0dT6AQAAAABJRU5ErkJggg==;imageBackground=default;imageBorder=none;whiteSpace=wrap;align=center;fontSize=13;fontStyle=1;fontColor=#FF00FF;" vertex="1" parent="1">
          <mxGeometry x="439.86" y="630" width="41" height="56" as="geometry" />
        </mxCell>
        <mxCell id="BOUWN-XstE5efqa54NFd-19" value="PROJECT_A&#xa;SUBSCRIPTION" style="shape=image;verticalLabelPosition=bottom;labelBackgroundColor=default;verticalAlign=top;aspect=fixed;imageAspect=0;image=data:image/png,iVBORw0KGgoAAAANSUhEUgAAACkAAAA4CAYAAABg6tHIAAALRElEQVRoBb2ZaWxc1RmG+Udsx/s4KyQhiUNDUgJFIglKSTChqlpaNaICFUTFIlVFFUtCJGgp/VHKH6QQKKSoUqWWUBUJlN1OHCdexh6P7bE9Xsa7493xGtuzeMZ35t5zn+rcOzdOjO147JAfr+5sd+5z3vOdc77znbu8Xi9L1vgIvpFuQ97xkaX/3wymuxYFOD6Mb6Qd/4CbQG8Rgc5sJtu/YbL9WwJdF/D3OfANNuAd7eZ2QC8KUgIGOs8Rqv+IsPMVIkVPEyn8KZHCnxOxP4NS8QbB5n/h7y02QWc4E6sxsUGODeIbbiLQlc1U7V+JlPwaLXc7+tmVhsTZNYhz61HzdqGU/45g4+eGq0t1NCZICRhs/wrFfZhI8U/R8rYhzq9Dz15pSGSvQmSvRpzfiJb3MOHS5wg2SdClObowyKiDk12nUNyHUIv3Iy5lol9YYUjkrjXei7xMxIW16OdXoOesQLv8EErFqwSbP8ffX7LoGF0QpOHgleMoNQdRHVmI/ExE3lr0iysMyfdq6ZOojicRlzPRc1cYEhfXoeXvIFz2LMHmz/D32RcVo/NDjg/iG2lisvskSu1BA0QUbEa/lIF+OQNRsA7NvoNI+dMo9YcNydda0Q7E5XXoFzPQczPQCnYQrnyFYMtnpqPXYhv180JKwGDncZT6g6hlTyCKNqMXrkEvyEAvsCEcDxKueZlQ61ECfRcNhVo/Iex+BVH8oNEQs0H3GuDhimejoHa8EnSBo352SMvBnpMonoOoFVmI4s1QaIMiG9il0tHKf4TS+BbB7v/hG2nEP1xPsPPfhOtfQ5Q+BAU2yLddh5Wuh6tjd3RWyOsOGoD7EI5N6MWrodgGJemmHOmIim2EPS8Q6jiKf6icwIAdpfld1Kr9iNLNZmOKbOiFNvR86f69RniEXbE5ejPkjQ42HER1ZSFKN0HxNBil6eBMg7I0hGsjau0+lObfE+z+J6HOT4nUHUBUPIDuXGs2Rt4rnZegMkzyM9CKo462LixGb4I0HOw6jtLwFmrlPoRzE3rpKkywdChLh/I0qDClu1Yiqu5Dq3kY1fMUan0WomoresUa9LIMcKaDI9rAYhu6XbqagV50rxGzEemoATp/jJqQE6N4x/oI9F9CaTyMWpllAE7DpU3DudKgMvUm6VU29KrVply2640wGiRdl+4bsNF4lrGdbzNAjRhtPYZ/oBzv2FW8E9e+M6BMyLE+/IMVhDq+QHX/AlG2Cd25ynROuibBDLg0qEqF6pulV6ehV6ebqrIaEb1H3i/dl65K2JJp0OuOVr1AsOM4/qE6E3TGqDcgfaMtTPZ8g9L0NprrEfPPZNfKB1RaD00FVwpUJM+t8mSQKpNKAWcKlEblSAVH2qyOao5dTDX8hcmebHyjV2Z30j9UxVTbh0Rqf4lw3T/toASUzlVJOPmwJLAvh8KE2VWQAAXLTeUvh8uWEqFQ3ptigs5wVBRvJ1L1PKGWT/EP1c4BOehEaX4brXoPumvDtIMS0B2FdCZB0XLIi4cLcfPrfDzkRJUdD/J9bgLkJ4F01BpQckorkrGZiVr2FFMNf8Y/UDEH5JATpeVtNPce9MoNZhdbgDVykCRDcRQwexmcuRvOziH53ZllcHqGzsaZoCUp0zEqB5NdQm5ELduH4nkH/0DZHJDDFUy1v49a9xNE9abpwVGTArUpUJUM9gTIjTPhTt0Np+eQ/E7q5AxJ6Avx4JAxbc6z5kBKR5RuQa18mqnmD/APVs4BOVJLqOvvRJqeR9RsNUev7GYJWJcC1UlQnAAXl8G5OeBmQt8IK1+fXQZ5CeBMNnvKADWnJlH+MGHPH4w8Qc7VM9d0c3Rfa2Oy/yTKlT+ieR5Dr1mFXptuAtangFvGUgJcjoPzyyD77vklGyIlQ0J2/znpYpw5oOTol9OUKw29YhWifCNqzc8IXTlK4Kod3yyJhzlPjg/gH/UQ7P+KSMuziPr70etWgQT0JENtEpQngD3eBM2Trswj6bglGSJ5cZAfb8a1S0LKOE8zViu15gljPASu5pqAs+w2TciJMbzjQ/iHS5nq/huR1gOIxu3oDSvRG1OhPgmql0NFApTGQ0kMkmFSIu9bDuVJxnSmu1cg3Peh1u9FaX2TYM+X+EYbv9PNVrdHISfwTozhG+syQEN9x4i0HUA0bUFvWgGNSeBJgvpEqEuE2hhUkwg1SWbIuJPBnYKo3YDq2YfS9qYRZgbg+OAtIK1lyHJ0xMFUzwdErvwK0boNvXkFenMqNCfHpqZkkGpMNsJGr89A1G9AbXwcpf1Ngn3zO3izk9chb3B0xEHo6jEinRJ0iwG6VEjRsB61eS9KxxtMXj1hdvE8Ds4OeR02GqOjDqb6PzBB2xbvqN5kQzStR235MUrnGwT7v8R3be4YtOCsqxmTFpx1nYg6Ot6Ff3TpjoqWdahtj6N0vc7k4AkTcAEOzg95HXZpjurNNgzA9j0o3a8TvPqfmBxcIOTSHDUArzyO0vM6k0OxO7gwyBmOBkbsTPW+i9qRhWjdcMuRLlq3Eu56keDVf+C7Vj/nFGPBzHWdPSYtOOtqxei1BoKD/zWc0doevCWk1vYIU73vExg+j2/su8nsXFAzP18YZBTWN95FYCSfqb4P0VofNVciOVnLyb0haRo6Oj9qrTtQut8iOPA1/msevBMjeCfGY3Y0RsgeAqMlhPo+QmvaCa7l5noul0kJak320Qlcb7oHreVRwp2vMTmUg2+s2wS1emiB1xghewmMOgn1HkHz7ITSaPp2KQ6qE83VxVphGpLRGzKQE7hcYicHvsE31oF3Yvj7drKXwIiTUM8RtLqdZuJwQWZDcVCVaC5/Dckg5UlG96xCNDxAuP1FJgfP4R3vxSu3zwt00Ppd7E5KyO4jaLU7zWw9Z5mZsbsSwSNTuxQzxatLQXjWozbtRek8TGC40Mi0ZCJjPXyh18VBdh1Bc++EogSQex6Z0FbIDCmaycuMvlZCPkC47beEeo/hH60xMi2vnCm+VyfHegkMOwl1HkGr3glyCyuz7vNxUCZHeQrIjZuUOxVR9wMizc8R6j6Kf6QmZjirMbE5eSNk1S6Qe2u5d8mJA7nllfsiqWiFQ69ejXBvJdz8EoHBojsM2XEErXKXufk/EwfZceCQWbfco1tVjzR0lw3dtZqI5wCBgUt3EHLISejKETTXbriUCKfj4JzcTiRP14yi9R9ZXROVWwk3vnyHnbQgy3fDxUQ4Jffi8WCXdSBZnIqWCJ3p5k6wWm603jWKrFaMxXqNPSYHnYTaP0Yr2w25iXAyDk7HQ6EsUEUrZ9GapCj/IeH6l4xqnSxVxwpn/X5xkG0fo5XuhvOJcCIeTsk9eUq0smszy9ayfFK6jYj7N4TaPpm1EGVB3Oq6OMjWj9FKHoPsJPg2Hk4kQF6qWfSXBVKpAlnVvQfNvp2w+1UC/fY746SsBhvF1tZP0Yr3oJ9LQT+xHP1kInpumlm8lwX8y5bWIAoyCVe+QKCv4E5B9uMfchNq+wK1ZC96Thr6mRT0s6nouTbzECovA13qYoZxOqY69jNV9yf8V8vvEOT4EL6RFiY7viZS9gwibzMiZxV6tg39gjz9ih7XRc8a1eIs4yxSHprKo79bxd5c38cUk0ZyMD5EoM/OVO07qPYnEbmZ6Nnmgad18CkuZqLa96NUH2Ky85QJODZ3hWIuOOvz2CCjicH1I+XqQ6hFWYjcLYice0xd2IJamIVSdYhg21f4hhbv4JIgvdbRcscpA0Yt2I/IkaBbkK+VykNMdpwyAZfg4NIgLUeHmgi2fsVU9XuEHS8amqp6j2DL7XHwtkAajg414e+vINBTaEi+Nrr4Njh4eyBjTF6th8Z6/T/LBaab0dT6AQAAAABJRU5ErkJggg==;imageBackground=default;imageBorder=none;whiteSpace=wrap;align=center;fontSize=13;fontStyle=1;fontColor=#FF00FF;" vertex="1" parent="1">
          <mxGeometry x="996.86" y="766" width="41" height="56" as="geometry" />
        </mxCell>
        <mxCell id="BOUWN-XstE5efqa54NFd-20" value="PROJECT_B &#xa;SUBSCRIPTION" style="shape=image;verticalLabelPosition=bottom;labelBackgroundColor=default;verticalAlign=top;aspect=fixed;imageAspect=0;image=data:image/png,iVBORw0KGgoAAAANSUhEUgAAACkAAAA4CAYAAABg6tHIAAALRElEQVRoBb2ZaWxc1RmG+Udsx/s4KyQhiUNDUgJFIglKSTChqlpaNaICFUTFIlVFFUtCJGgp/VHKH6QQKKSoUqWWUBUJlN1OHCdexh6P7bE9Xsa7493xGtuzeMZ35t5zn+rcOzdOjO147JAfr+5sd+5z3vOdc77znbu8Xi9L1vgIvpFuQ97xkaX/3wymuxYFOD6Mb6Qd/4CbQG8Rgc5sJtu/YbL9WwJdF/D3OfANNuAd7eZ2QC8KUgIGOs8Rqv+IsPMVIkVPEyn8KZHCnxOxP4NS8QbB5n/h7y02QWc4E6sxsUGODeIbbiLQlc1U7V+JlPwaLXc7+tmVhsTZNYhz61HzdqGU/45g4+eGq0t1NCZICRhs/wrFfZhI8U/R8rYhzq9Dz15pSGSvQmSvRpzfiJb3MOHS5wg2SdClObowyKiDk12nUNyHUIv3Iy5lol9YYUjkrjXei7xMxIW16OdXoOesQLv8EErFqwSbP8ffX7LoGF0QpOHgleMoNQdRHVmI/ExE3lr0iysMyfdq6ZOojicRlzPRc1cYEhfXoeXvIFz2LMHmz/D32RcVo/NDjg/iG2lisvskSu1BA0QUbEa/lIF+OQNRsA7NvoNI+dMo9YcNydda0Q7E5XXoFzPQczPQCnYQrnyFYMtnpqPXYhv180JKwGDncZT6g6hlTyCKNqMXrkEvyEAvsCEcDxKueZlQ61ECfRcNhVo/Iex+BVH8oNEQs0H3GuDhimejoHa8EnSBo352SMvBnpMonoOoFVmI4s1QaIMiG9il0tHKf4TS+BbB7v/hG2nEP1xPsPPfhOtfQ5Q+BAU2yLddh5Wuh6tjd3RWyOsOGoD7EI5N6MWrodgGJemmHOmIim2EPS8Q6jiKf6icwIAdpfld1Kr9iNLNZmOKbOiFNvR86f69RniEXbE5ejPkjQ42HER1ZSFKN0HxNBil6eBMg7I0hGsjau0+lObfE+z+J6HOT4nUHUBUPIDuXGs2Rt4rnZegMkzyM9CKo462LixGb4I0HOw6jtLwFmrlPoRzE3rpKkywdChLh/I0qDClu1Yiqu5Dq3kY1fMUan0WomoresUa9LIMcKaDI9rAYhu6XbqagV50rxGzEemoATp/jJqQE6N4x/oI9F9CaTyMWpllAE7DpU3DudKgMvUm6VU29KrVply2640wGiRdl+4bsNF4lrGdbzNAjRhtPYZ/oBzv2FW8E9e+M6BMyLE+/IMVhDq+QHX/AlG2Cd25ynROuibBDLg0qEqF6pulV6ehV6ebqrIaEb1H3i/dl65K2JJp0OuOVr1AsOM4/qE6E3TGqDcgfaMtTPZ8g9L0NprrEfPPZNfKB1RaD00FVwpUJM+t8mSQKpNKAWcKlEblSAVH2qyOao5dTDX8hcmebHyjV2Z30j9UxVTbh0Rqf4lw3T/toASUzlVJOPmwJLAvh8KE2VWQAAXLTeUvh8uWEqFQ3ptigs5wVBRvJ1L1PKGWT/EP1c4BOehEaX4brXoPumvDtIMS0B2FdCZB0XLIi4cLcfPrfDzkRJUdD/J9bgLkJ4F01BpQckorkrGZiVr2FFMNf8Y/UDEH5JATpeVtNPce9MoNZhdbgDVykCRDcRQwexmcuRvOziH53ZllcHqGzsaZoCUp0zEqB5NdQm5ELduH4nkH/0DZHJDDFUy1v49a9xNE9abpwVGTArUpUJUM9gTIjTPhTt0Np+eQ/E7q5AxJ6Avx4JAxbc6z5kBKR5RuQa18mqnmD/APVs4BOVJLqOvvRJqeR9RsNUev7GYJWJcC1UlQnAAXl8G5OeBmQt8IK1+fXQZ5CeBMNnvKADWnJlH+MGHPH4w8Qc7VM9d0c3Rfa2Oy/yTKlT+ieR5Dr1mFXptuAtangFvGUgJcjoPzyyD77vklGyIlQ0J2/znpYpw5oOTol9OUKw29YhWifCNqzc8IXTlK4Kod3yyJhzlPjg/gH/UQ7P+KSMuziPr70etWgQT0JENtEpQngD3eBM2Trswj6bglGSJ5cZAfb8a1S0LKOE8zViu15gljPASu5pqAs+w2TciJMbzjQ/iHS5nq/huR1gOIxu3oDSvRG1OhPgmql0NFApTGQ0kMkmFSIu9bDuVJxnSmu1cg3Peh1u9FaX2TYM+X+EYbv9PNVrdHISfwTozhG+syQEN9x4i0HUA0bUFvWgGNSeBJgvpEqEuE2hhUkwg1SWbIuJPBnYKo3YDq2YfS9qYRZgbg+OAtIK1lyHJ0xMFUzwdErvwK0boNvXkFenMqNCfHpqZkkGpMNsJGr89A1G9AbXwcpf1Ngn3zO3izk9chb3B0xEHo6jEinRJ0iwG6VEjRsB61eS9KxxtMXj1hdvE8Ds4OeR02GqOjDqb6PzBB2xbvqN5kQzStR235MUrnGwT7v8R3be4YtOCsqxmTFpx1nYg6Ot6Ff3TpjoqWdahtj6N0vc7k4AkTcAEOzg95HXZpjurNNgzA9j0o3a8TvPqfmBxcIOTSHDUArzyO0vM6k0OxO7gwyBmOBkbsTPW+i9qRhWjdcMuRLlq3Eu56keDVf+C7Vj/nFGPBzHWdPSYtOOtqxei1BoKD/zWc0doevCWk1vYIU73vExg+j2/su8nsXFAzP18YZBTWN95FYCSfqb4P0VofNVciOVnLyb0haRo6Oj9qrTtQut8iOPA1/msevBMjeCfGY3Y0RsgeAqMlhPo+QmvaCa7l5noul0kJak320Qlcb7oHreVRwp2vMTmUg2+s2wS1emiB1xghewmMOgn1HkHz7ITSaPp2KQ6qE83VxVphGpLRGzKQE7hcYicHvsE31oF3Yvj7drKXwIiTUM8RtLqdZuJwQWZDcVCVaC5/Dckg5UlG96xCNDxAuP1FJgfP4R3vxSu3zwt00Ppd7E5KyO4jaLU7zWw9Z5mZsbsSwSNTuxQzxatLQXjWozbtRek8TGC40Mi0ZCJjPXyh18VBdh1Bc++EogSQex6Z0FbIDCmaycuMvlZCPkC47beEeo/hH60xMi2vnCm+VyfHegkMOwl1HkGr3glyCyuz7vNxUCZHeQrIjZuUOxVR9wMizc8R6j6Kf6QmZjirMbE5eSNk1S6Qe2u5d8mJA7nllfsiqWiFQ69ejXBvJdz8EoHBojsM2XEErXKXufk/EwfZceCQWbfco1tVjzR0lw3dtZqI5wCBgUt3EHLISejKETTXbriUCKfj4JzcTiRP14yi9R9ZXROVWwk3vnyHnbQgy3fDxUQ4Jffi8WCXdSBZnIqWCJ3p5k6wWm603jWKrFaMxXqNPSYHnYTaP0Yr2w25iXAyDk7HQ6EsUEUrZ9GapCj/IeH6l4xqnSxVxwpn/X5xkG0fo5XuhvOJcCIeTsk9eUq0smszy9ayfFK6jYj7N4TaPpm1EGVB3Oq6OMjWj9FKHoPsJPg2Hk4kQF6qWfSXBVKpAlnVvQfNvp2w+1UC/fY746SsBhvF1tZP0Yr3oJ9LQT+xHP1kInpumlm8lwX8y5bWIAoyCVe+QKCv4E5B9uMfchNq+wK1ZC96Thr6mRT0s6nouTbzECovA13qYoZxOqY69jNV9yf8V8vvEOT4EL6RFiY7viZS9gwibzMiZxV6tg39gjz9ih7XRc8a1eIs4yxSHprKo79bxd5c38cUk0ZyMD5EoM/OVO07qPYnEbmZ6Nnmgad18CkuZqLa96NUH2Ky85QJODZ3hWIuOOvz2CCjicH1I+XqQ6hFWYjcLYice0xd2IJamIVSdYhg21f4hhbv4JIgvdbRcscpA0Yt2I/IkaBbkK+VykNMdpwyAZfg4NIgLUeHmgi2fsVU9XuEHS8amqp6j2DL7XHwtkAajg414e+vINBTaEi+Nrr4Njh4eyBjTF6th8Z6/T/LBaab0dT6AQAAAABJRU5ErkJggg==;imageBackground=default;imageBorder=none;whiteSpace=wrap;align=center;fontSize=13;fontStyle=1;fontColor=#FF00FF;" vertex="1" parent="1">
          <mxGeometry x="1049.8600000000001" y="650" width="41" height="56" as="geometry" />
        </mxCell>
        <mxCell id="BOUWN-XstE5efqa54NFd-22" value="PROJECT_C&#xa;SUBSCRIPTION" style="shape=image;verticalLabelPosition=bottom;labelBackgroundColor=default;verticalAlign=top;aspect=fixed;imageAspect=0;image=data:image/png,iVBORw0KGgoAAAANSUhEUgAAACkAAAA4CAYAAABg6tHIAAALRElEQVRoBb2ZaWxc1RmG+Udsx/s4KyQhiUNDUgJFIglKSTChqlpaNaICFUTFIlVFFUtCJGgp/VHKH6QQKKSoUqWWUBUJlN1OHCdexh6P7bE9Xsa7493xGtuzeMZ35t5zn+rcOzdOjO147JAfr+5sd+5z3vOdc77znbu8Xi9L1vgIvpFuQ97xkaX/3wymuxYFOD6Mb6Qd/4CbQG8Rgc5sJtu/YbL9WwJdF/D3OfANNuAd7eZ2QC8KUgIGOs8Rqv+IsPMVIkVPEyn8KZHCnxOxP4NS8QbB5n/h7y02QWc4E6sxsUGODeIbbiLQlc1U7V+JlPwaLXc7+tmVhsTZNYhz61HzdqGU/45g4+eGq0t1NCZICRhs/wrFfZhI8U/R8rYhzq9Dz15pSGSvQmSvRpzfiJb3MOHS5wg2SdClObowyKiDk12nUNyHUIv3Iy5lol9YYUjkrjXei7xMxIW16OdXoOesQLv8EErFqwSbP8ffX7LoGF0QpOHgleMoNQdRHVmI/ExE3lr0iysMyfdq6ZOojicRlzPRc1cYEhfXoeXvIFz2LMHmz/D32RcVo/NDjg/iG2lisvskSu1BA0QUbEa/lIF+OQNRsA7NvoNI+dMo9YcNydda0Q7E5XXoFzPQczPQCnYQrnyFYMtnpqPXYhv180JKwGDncZT6g6hlTyCKNqMXrkEvyEAvsCEcDxKueZlQ61ECfRcNhVo/Iex+BVH8oNEQs0H3GuDhimejoHa8EnSBo352SMvBnpMonoOoFVmI4s1QaIMiG9il0tHKf4TS+BbB7v/hG2nEP1xPsPPfhOtfQ5Q+BAU2yLddh5Wuh6tjd3RWyOsOGoD7EI5N6MWrodgGJemmHOmIim2EPS8Q6jiKf6icwIAdpfld1Kr9iNLNZmOKbOiFNvR86f69RniEXbE5ejPkjQ42HER1ZSFKN0HxNBil6eBMg7I0hGsjau0+lObfE+z+J6HOT4nUHUBUPIDuXGs2Rt4rnZegMkzyM9CKo462LixGb4I0HOw6jtLwFmrlPoRzE3rpKkywdChLh/I0qDClu1Yiqu5Dq3kY1fMUan0WomoresUa9LIMcKaDI9rAYhu6XbqagV50rxGzEemoATp/jJqQE6N4x/oI9F9CaTyMWpllAE7DpU3DudKgMvUm6VU29KrVply2640wGiRdl+4bsNF4lrGdbzNAjRhtPYZ/oBzv2FW8E9e+M6BMyLE+/IMVhDq+QHX/AlG2Cd25ynROuibBDLg0qEqF6pulV6ehV6ebqrIaEb1H3i/dl65K2JJp0OuOVr1AsOM4/qE6E3TGqDcgfaMtTPZ8g9L0NprrEfPPZNfKB1RaD00FVwpUJM+t8mSQKpNKAWcKlEblSAVH2qyOao5dTDX8hcmebHyjV2Z30j9UxVTbh0Rqf4lw3T/toASUzlVJOPmwJLAvh8KE2VWQAAXLTeUvh8uWEqFQ3ptigs5wVBRvJ1L1PKGWT/EP1c4BOehEaX4brXoPumvDtIMS0B2FdCZB0XLIi4cLcfPrfDzkRJUdD/J9bgLkJ4F01BpQckorkrGZiVr2FFMNf8Y/UDEH5JATpeVtNPce9MoNZhdbgDVykCRDcRQwexmcuRvOziH53ZllcHqGzsaZoCUp0zEqB5NdQm5ELduH4nkH/0DZHJDDFUy1v49a9xNE9abpwVGTArUpUJUM9gTIjTPhTt0Np+eQ/E7q5AxJ6Avx4JAxbc6z5kBKR5RuQa18mqnmD/APVs4BOVJLqOvvRJqeR9RsNUev7GYJWJcC1UlQnAAXl8G5OeBmQt8IK1+fXQZ5CeBMNnvKADWnJlH+MGHPH4w8Qc7VM9d0c3Rfa2Oy/yTKlT+ieR5Dr1mFXptuAtangFvGUgJcjoPzyyD77vklGyIlQ0J2/znpYpw5oOTol9OUKw29YhWifCNqzc8IXTlK4Kod3yyJhzlPjg/gH/UQ7P+KSMuziPr70etWgQT0JENtEpQngD3eBM2Trswj6bglGSJ5cZAfb8a1S0LKOE8zViu15gljPASu5pqAs+w2TciJMbzjQ/iHS5nq/huR1gOIxu3oDSvRG1OhPgmql0NFApTGQ0kMkmFSIu9bDuVJxnSmu1cg3Peh1u9FaX2TYM+X+EYbv9PNVrdHISfwTozhG+syQEN9x4i0HUA0bUFvWgGNSeBJgvpEqEuE2hhUkwg1SWbIuJPBnYKo3YDq2YfS9qYRZgbg+OAtIK1lyHJ0xMFUzwdErvwK0boNvXkFenMqNCfHpqZkkGpMNsJGr89A1G9AbXwcpf1Ngn3zO3izk9chb3B0xEHo6jEinRJ0iwG6VEjRsB61eS9KxxtMXj1hdvE8Ds4OeR02GqOjDqb6PzBB2xbvqN5kQzStR235MUrnGwT7v8R3be4YtOCsqxmTFpx1nYg6Ot6Ff3TpjoqWdahtj6N0vc7k4AkTcAEOzg95HXZpjurNNgzA9j0o3a8TvPqfmBxcIOTSHDUArzyO0vM6k0OxO7gwyBmOBkbsTPW+i9qRhWjdcMuRLlq3Eu56keDVf+C7Vj/nFGPBzHWdPSYtOOtqxei1BoKD/zWc0doevCWk1vYIU73vExg+j2/su8nsXFAzP18YZBTWN95FYCSfqb4P0VofNVciOVnLyb0haRo6Oj9qrTtQut8iOPA1/msevBMjeCfGY3Y0RsgeAqMlhPo+QmvaCa7l5noul0kJak320Qlcb7oHreVRwp2vMTmUg2+s2wS1emiB1xghewmMOgn1HkHz7ITSaPp2KQ6qE83VxVphGpLRGzKQE7hcYicHvsE31oF3Yvj7drKXwIiTUM8RtLqdZuJwQWZDcVCVaC5/Dckg5UlG96xCNDxAuP1FJgfP4R3vxSu3zwt00Ppd7E5KyO4jaLU7zWw9Z5mZsbsSwSNTuxQzxatLQXjWozbtRek8TGC40Mi0ZCJjPXyh18VBdh1Bc++EogSQex6Z0FbIDCmaycuMvlZCPkC47beEeo/hH60xMi2vnCm+VyfHegkMOwl1HkGr3glyCyuz7vNxUCZHeQrIjZuUOxVR9wMizc8R6j6Kf6QmZjirMbE5eSNk1S6Qe2u5d8mJA7nllfsiqWiFQ69ejXBvJdz8EoHBojsM2XEErXKXufk/EwfZceCQWbfco1tVjzR0lw3dtZqI5wCBgUt3EHLISejKETTXbriUCKfj4JzcTiRP14yi9R9ZXROVWwk3vnyHnbQgy3fDxUQ4Jffi8WCXdSBZnIqWCJ3p5k6wWm603jWKrFaMxXqNPSYHnYTaP0Yr2w25iXAyDk7HQ6EsUEUrZ9GapCj/IeH6l4xqnSxVxwpn/X5xkG0fo5XuhvOJcCIeTsk9eUq0smszy9ayfFK6jYj7N4TaPpm1EGVB3Oq6OMjWj9FKHoPsJPg2Hk4kQF6qWfSXBVKpAlnVvQfNvp2w+1UC/fY746SsBhvF1tZP0Yr3oJ9LQT+xHP1kInpumlm8lwX8y5bWIAoyCVe+QKCv4E5B9uMfchNq+wK1ZC96Thr6mRT0s6nouTbzECovA13qYoZxOqY69jNV9yf8V8vvEOT4EL6RFiY7viZS9gwibzMiZxV6tg39gjz9ih7XRc8a1eIs4yxSHprKo79bxd5c38cUk0ZyMD5EoM/OVO07qPYnEbmZ6Nnmgad18CkuZqLa96NUH2Ky85QJODZ3hWIuOOvz2CCjicH1I+XqQ6hFWYjcLYice0xd2IJamIVSdYhg21f4hhbv4JIgvdbRcscpA0Yt2I/IkaBbkK+VykNMdpwyAZfg4NIgLUeHmgi2fsVU9XuEHS8amqp6j2DL7XHwtkAajg414e+vINBTaEi+Nrr4Njh4eyBjTF6th8Z6/T/LBaab0dT6AQAAAABJRU5ErkJggg==;imageBackground=default;imageBorder=none;whiteSpace=wrap;align=center;fontSize=13;fontStyle=1;fontColor=#FF00FF;" vertex="1" parent="1">
          <mxGeometry x="1136.8600000000001" y="766" width="41" height="56" as="geometry" />
        </mxCell>
        <mxCell id="BOUWN-XstE5efqa54NFd-26" value="&lt;font style=&quot;font-size: 16px;&quot;&gt;&lt;b&gt;&lt;font color=&quot;#00cccc&quot;&gt;LEVEL1 SUPPORT&amp;nbsp;&lt;br&gt;LAPTOPS, M365...&lt;br&gt;AZURE AD&lt;br&gt;(TENANT)&lt;/font&gt;&lt;br&gt;&lt;/b&gt;&lt;/font&gt;" style="image;aspect=fixed;html=1;points=[];align=center;fontSize=12;image=img/lib/azure2/identity/Azure_Active_Directory.svg;" vertex="1" parent="1">
          <mxGeometry x="-230" y="290" width="70" height="64" as="geometry" />
        </mxCell>
        <mxCell id="BOUWN-XstE5efqa54NFd-27" value="COMPUTE  TEAM &#xa;SUBSCRIPTION" style="shape=image;verticalLabelPosition=bottom;labelBackgroundColor=default;verticalAlign=top;aspect=fixed;imageAspect=0;image=data:image/png,iVBORw0KGgoAAAANSUhEUgAAACkAAAA4CAYAAABg6tHIAAALRElEQVRoBb2ZaWxc1RmG+Udsx/s4KyQhiUNDUgJFIglKSTChqlpaNaICFUTFIlVFFUtCJGgp/VHKH6QQKKSoUqWWUBUJlN1OHCdexh6P7bE9Xsa7493xGtuzeMZ35t5zn+rcOzdOjO147JAfr+5sd+5z3vOdc77znbu8Xi9L1vgIvpFuQ97xkaX/3wymuxYFOD6Mb6Qd/4CbQG8Rgc5sJtu/YbL9WwJdF/D3OfANNuAd7eZ2QC8KUgIGOs8Rqv+IsPMVIkVPEyn8KZHCnxOxP4NS8QbB5n/h7y02QWc4E6sxsUGODeIbbiLQlc1U7V+JlPwaLXc7+tmVhsTZNYhz61HzdqGU/45g4+eGq0t1NCZICRhs/wrFfZhI8U/R8rYhzq9Dz15pSGSvQmSvRpzfiJb3MOHS5wg2SdClObowyKiDk12nUNyHUIv3Iy5lol9YYUjkrjXei7xMxIW16OdXoOesQLv8EErFqwSbP8ffX7LoGF0QpOHgleMoNQdRHVmI/ExE3lr0iysMyfdq6ZOojicRlzPRc1cYEhfXoeXvIFz2LMHmz/D32RcVo/NDjg/iG2lisvskSu1BA0QUbEa/lIF+OQNRsA7NvoNI+dMo9YcNydda0Q7E5XXoFzPQczPQCnYQrnyFYMtnpqPXYhv180JKwGDncZT6g6hlTyCKNqMXrkEvyEAvsCEcDxKueZlQ61ECfRcNhVo/Iex+BVH8oNEQs0H3GuDhimejoHa8EnSBo352SMvBnpMonoOoFVmI4s1QaIMiG9il0tHKf4TS+BbB7v/hG2nEP1xPsPPfhOtfQ5Q+BAU2yLddh5Wuh6tjd3RWyOsOGoD7EI5N6MWrodgGJemmHOmIim2EPS8Q6jiKf6icwIAdpfld1Kr9iNLNZmOKbOiFNvR86f69RniEXbE5ejPkjQ42HER1ZSFKN0HxNBil6eBMg7I0hGsjau0+lObfE+z+J6HOT4nUHUBUPIDuXGs2Rt4rnZegMkzyM9CKo462LixGb4I0HOw6jtLwFmrlPoRzE3rpKkywdChLh/I0qDClu1Yiqu5Dq3kY1fMUan0WomoresUa9LIMcKaDI9rAYhu6XbqagV50rxGzEemoATp/jJqQE6N4x/oI9F9CaTyMWpllAE7DpU3DudKgMvUm6VU29KrVply2640wGiRdl+4bsNF4lrGdbzNAjRhtPYZ/oBzv2FW8E9e+M6BMyLE+/IMVhDq+QHX/AlG2Cd25ynROuibBDLg0qEqF6pulV6ehV6ebqrIaEb1H3i/dl65K2JJp0OuOVr1AsOM4/qE6E3TGqDcgfaMtTPZ8g9L0NprrEfPPZNfKB1RaD00FVwpUJM+t8mSQKpNKAWcKlEblSAVH2qyOao5dTDX8hcmebHyjV2Z30j9UxVTbh0Rqf4lw3T/toASUzlVJOPmwJLAvh8KE2VWQAAXLTeUvh8uWEqFQ3ptigs5wVBRvJ1L1PKGWT/EP1c4BOehEaX4brXoPumvDtIMS0B2FdCZB0XLIi4cLcfPrfDzkRJUdD/J9bgLkJ4F01BpQckorkrGZiVr2FFMNf8Y/UDEH5JATpeVtNPce9MoNZhdbgDVykCRDcRQwexmcuRvOziH53ZllcHqGzsaZoCUp0zEqB5NdQm5ELduH4nkH/0DZHJDDFUy1v49a9xNE9abpwVGTArUpUJUM9gTIjTPhTt0Np+eQ/E7q5AxJ6Avx4JAxbc6z5kBKR5RuQa18mqnmD/APVs4BOVJLqOvvRJqeR9RsNUev7GYJWJcC1UlQnAAXl8G5OeBmQt8IK1+fXQZ5CeBMNnvKADWnJlH+MGHPH4w8Qc7VM9d0c3Rfa2Oy/yTKlT+ieR5Dr1mFXptuAtangFvGUgJcjoPzyyD77vklGyIlQ0J2/znpYpw5oOTol9OUKw29YhWifCNqzc8IXTlK4Kod3yyJhzlPjg/gH/UQ7P+KSMuziPr70etWgQT0JENtEpQngD3eBM2Trswj6bglGSJ5cZAfb8a1S0LKOE8zViu15gljPASu5pqAs+w2TciJMbzjQ/iHS5nq/huR1gOIxu3oDSvRG1OhPgmql0NFApTGQ0kMkmFSIu9bDuVJxnSmu1cg3Peh1u9FaX2TYM+X+EYbv9PNVrdHISfwTozhG+syQEN9x4i0HUA0bUFvWgGNSeBJgvpEqEuE2hhUkwg1SWbIuJPBnYKo3YDq2YfS9qYRZgbg+OAtIK1lyHJ0xMFUzwdErvwK0boNvXkFenMqNCfHpqZkkGpMNsJGr89A1G9AbXwcpf1Ngn3zO3izk9chb3B0xEHo6jEinRJ0iwG6VEjRsB61eS9KxxtMXj1hdvE8Ds4OeR02GqOjDqb6PzBB2xbvqN5kQzStR235MUrnGwT7v8R3be4YtOCsqxmTFpx1nYg6Ot6Ff3TpjoqWdahtj6N0vc7k4AkTcAEOzg95HXZpjurNNgzA9j0o3a8TvPqfmBxcIOTSHDUArzyO0vM6k0OxO7gwyBmOBkbsTPW+i9qRhWjdcMuRLlq3Eu56keDVf+C7Vj/nFGPBzHWdPSYtOOtqxei1BoKD/zWc0doevCWk1vYIU73vExg+j2/su8nsXFAzP18YZBTWN95FYCSfqb4P0VofNVciOVnLyb0haRo6Oj9qrTtQut8iOPA1/msevBMjeCfGY3Y0RsgeAqMlhPo+QmvaCa7l5noul0kJak320Qlcb7oHreVRwp2vMTmUg2+s2wS1emiB1xghewmMOgn1HkHz7ITSaPp2KQ6qE83VxVphGpLRGzKQE7hcYicHvsE31oF3Yvj7drKXwIiTUM8RtLqdZuJwQWZDcVCVaC5/Dckg5UlG96xCNDxAuP1FJgfP4R3vxSu3zwt00Ppd7E5KyO4jaLU7zWw9Z5mZsbsSwSNTuxQzxatLQXjWozbtRek8TGC40Mi0ZCJjPXyh18VBdh1Bc++EogSQex6Z0FbIDCmaycuMvlZCPkC47beEeo/hH60xMi2vnCm+VyfHegkMOwl1HkGr3glyCyuz7vNxUCZHeQrIjZuUOxVR9wMizc8R6j6Kf6QmZjirMbE5eSNk1S6Qe2u5d8mJA7nllfsiqWiFQ69ejXBvJdz8EoHBojsM2XEErXKXufk/EwfZceCQWbfco1tVjzR0lw3dtZqI5wCBgUt3EHLISejKETTXbriUCKfj4JzcTiRP14yi9R9ZXROVWwk3vnyHnbQgy3fDxUQ4Jffi8WCXdSBZnIqWCJ3p5k6wWm603jWKrFaMxXqNPSYHnYTaP0Yr2w25iXAyDk7HQ6EsUEUrZ9GapCj/IeH6l4xqnSxVxwpn/X5xkG0fo5XuhvOJcCIeTsk9eUq0smszy9ayfFK6jYj7N4TaPpm1EGVB3Oq6OMjWj9FKHoPsJPg2Hk4kQF6qWfSXBVKpAlnVvQfNvp2w+1UC/fY746SsBhvF1tZP0Yr3oJ9LQT+xHP1kInpumlm8lwX8y5bWIAoyCVe+QKCv4E5B9uMfchNq+wK1ZC96Thr6mRT0s6nouTbzECovA13qYoZxOqY69jNV9yf8V8vvEOT4EL6RFiY7viZS9gwibzMiZxV6tg39gjz9ih7XRc8a1eIs4yxSHprKo79bxd5c38cUk0ZyMD5EoM/OVO07qPYnEbmZ6Nnmgad18CkuZqLa96NUH2Ky85QJODZ3hWIuOOvz2CCjicH1I+XqQ6hFWYjcLYice0xd2IJamIVSdYhg21f4hhbv4JIgvdbRcscpA0Yt2I/IkaBbkK+VykNMdpwyAZfg4NIgLUeHmgi2fsVU9XuEHS8amqp6j2DL7XHwtkAajg414e+vINBTaEi+Nrr4Njh4eyBjTF6th8Z6/T/LBaab0dT6AQAAAABJRU5ErkJggg==;imageBackground=default;imageBorder=none;whiteSpace=wrap;align=center;fontSize=13;fontStyle=1;fontColor=#FF00FF;" vertex="1" parent="1">
          <mxGeometry x="279.86" y="630" width="41" height="56" as="geometry" />
        </mxCell>
        <mxCell id="BOUWN-XstE5efqa54NFd-29" style="edgeStyle=orthogonalEdgeStyle;rounded=0;orthogonalLoop=1;jettySize=auto;html=1;curved=1;dashed=1;fillColor=#6a00ff;strokeColor=#3700CC;strokeWidth=3;endArrow=none;endFill=0;" edge="1" parent="1">
          <mxGeometry relative="1" as="geometry">
            <mxPoint x="1089.8600000000001" y="420" as="sourcePoint" />
            <mxPoint x="1159.8600000000001" y="760" as="targetPoint" />
            <Array as="points">
              <mxPoint x="1089.8600000000001" y="600" />
              <mxPoint x="1159.8600000000001" y="600" />
            </Array>
          </mxGeometry>
        </mxCell>
        <mxCell id="BOUWN-XstE5efqa54NFd-30" style="edgeStyle=orthogonalEdgeStyle;rounded=0;orthogonalLoop=1;jettySize=auto;html=1;curved=1;dashed=1;fillColor=#6a00ff;strokeColor=#3700CC;strokeWidth=3;endArrow=none;endFill=0;entryX=0;entryY=0.5;entryDx=0;entryDy=0;" edge="1" parent="1" target="BOUWN-XstE5efqa54NFd-19">
          <mxGeometry relative="1" as="geometry">
            <mxPoint x="1029.8600000000001" y="420" as="sourcePoint" />
            <mxPoint x="1177.8600000000001" y="776" as="targetPoint" />
          </mxGeometry>
        </mxCell>
        <mxCell id="BOUWN-XstE5efqa54NFd-31" style="edgeStyle=orthogonalEdgeStyle;rounded=0;orthogonalLoop=1;jettySize=auto;html=1;curved=1;dashed=1;fillColor=#6a00ff;strokeColor=#3700CC;strokeWidth=3;endArrow=none;endFill=0;entryX=0;entryY=0.75;entryDx=0;entryDy=0;" edge="1" parent="1" target="BOUWN-XstE5efqa54NFd-14">
          <mxGeometry relative="1" as="geometry">
            <mxPoint x="289.86" y="400" as="sourcePoint" />
            <mxPoint x="256.86" y="774" as="targetPoint" />
            <Array as="points">
              <mxPoint x="259.86" y="400" />
              <mxPoint x="259.86" y="542" />
            </Array>
          </mxGeometry>
        </mxCell>
        <mxCell id="BOUWN-XstE5efqa54NFd-32" style="edgeStyle=orthogonalEdgeStyle;rounded=0;orthogonalLoop=1;jettySize=auto;html=1;curved=1;dashed=1;fillColor=#6a00ff;strokeColor=#3700CC;strokeWidth=3;endArrow=none;endFill=0;entryX=0;entryY=0.75;entryDx=0;entryDy=0;" edge="1" parent="1" target="BOUWN-XstE5efqa54NFd-27">
          <mxGeometry relative="1" as="geometry">
            <mxPoint x="289.86" y="390" as="sourcePoint" />
            <mxPoint x="289.86" y="552" as="targetPoint" />
            <Array as="points">
              <mxPoint x="209.86" y="390" />
              <mxPoint x="209.86" y="672" />
            </Array>
          </mxGeometry>
        </mxCell>
        <mxCell id="BOUWN-XstE5efqa54NFd-33" style="edgeStyle=orthogonalEdgeStyle;rounded=0;orthogonalLoop=1;jettySize=auto;html=1;curved=1;dashed=1;fillColor=#6a00ff;strokeColor=#3700CC;strokeWidth=3;endArrow=none;endFill=0;entryX=1;entryY=0.75;entryDx=0;entryDy=0;" edge="1" parent="1" target="BOUWN-XstE5efqa54NFd-16">
          <mxGeometry relative="1" as="geometry">
            <mxPoint x="509.86" y="360" as="sourcePoint" />
            <mxPoint x="619.86" y="672" as="targetPoint" />
            <Array as="points">
              <mxPoint x="569.86" y="360" />
              <mxPoint x="569.86" y="672" />
            </Array>
          </mxGeometry>
        </mxCell>
        <mxCell id="BOUWN-XstE5efqa54NFd-34" style="edgeStyle=orthogonalEdgeStyle;rounded=0;orthogonalLoop=1;jettySize=auto;html=1;curved=1;dashed=1;fillColor=#6a00ff;strokeColor=#3700CC;strokeWidth=3;endArrow=none;endFill=0;entryX=1;entryY=0.75;entryDx=0;entryDy=0;exitX=1;exitY=0.75;exitDx=0;exitDy=0;" edge="1" parent="1" source="BOUWN-XstE5efqa54NFd-2" target="BOUWN-XstE5efqa54NFd-15">
          <mxGeometry relative="1" as="geometry">
            <mxPoint x="519.86" y="400" as="sourcePoint" />
            <mxPoint x="490.86" y="682" as="targetPoint" />
            <Array as="points">
              <mxPoint x="559.86" y="380" />
              <mxPoint x="559.86" y="550" />
              <mxPoint x="480.86" y="550" />
            </Array>
          </mxGeometry>
        </mxCell>
        <mxCell id="BOUWN-XstE5efqa54NFd-35" style="edgeStyle=orthogonalEdgeStyle;rounded=0;orthogonalLoop=1;jettySize=auto;html=1;curved=1;dashed=1;fillColor=#6a00ff;strokeColor=#3700CC;strokeWidth=3;endArrow=none;endFill=0;entryX=0.5;entryY=0;entryDx=0;entryDy=0;" edge="1" parent="1" target="BOUWN-XstE5efqa54NFd-11">
          <mxGeometry relative="1" as="geometry">
            <mxPoint x="380.86" y="430" as="sourcePoint" />
            <mxPoint x="289.86" y="552" as="targetPoint" />
            <Array as="points">
              <mxPoint x="380.86" y="430" />
              <mxPoint x="380.86" y="552" />
            </Array>
          </mxGeometry>
        </mxCell>
      </root>
    </mxGraphModel>
  </diagram>
</mxfile>
